<mxfile host="Electron" agent="Mozilla/5.0 (Macintosh; Intel Mac OS X 10_15_7) AppleWebKit/537.36 (KHTML, like Gecko) draw.io/26.0.3 Chrome/130.0.6723.137 Electron/33.2.1 Safari/537.36" version="26.0.3">
  <diagram id="C5RBs43oDa-KdzZeNtuy" name="Page-1">
    <mxGraphModel dx="2120" dy="1498" grid="1" gridSize="10" guides="1" tooltips="1" connect="1" arrows="1" fold="1" page="1" pageScale="1" pageWidth="827" pageHeight="1169" math="0" shadow="0">
      <root>
        <mxCell id="WIyWlLk6GJQsqaUBKTNV-0" />
        <mxCell id="WIyWlLk6GJQsqaUBKTNV-1" parent="WIyWlLk6GJQsqaUBKTNV-0" />
        <mxCell id="M3L84cAelBB2g7PGl4CK-6" value="Surgery Room Aggregate" style="swimlane;whiteSpace=wrap;html=1;" parent="WIyWlLk6GJQsqaUBKTNV-1" vertex="1">
          <mxGeometry x="1284" y="710" width="456" height="230" as="geometry" />
        </mxCell>
        <mxCell id="M3L84cAelBB2g7PGl4CK-172" value="identified by" style="edgeStyle=orthogonalEdgeStyle;rounded=0;orthogonalLoop=1;jettySize=auto;html=1;exitX=0.25;exitY=1;exitDx=0;exitDy=0;entryX=0.25;entryY=0;entryDx=0;entryDy=0;" parent="M3L84cAelBB2g7PGl4CK-6" source="M3L84cAelBB2g7PGl4CK-166" target="M3L84cAelBB2g7PGl4CK-167" edge="1">
          <mxGeometry x="0.0769" y="-22" relative="1" as="geometry">
            <mxPoint x="-1" as="offset" />
          </mxGeometry>
        </mxCell>
        <mxCell id="M3L84cAelBB2g7PGl4CK-203" value="1" style="edgeLabel;html=1;align=center;verticalAlign=middle;resizable=0;points=[];" parent="M3L84cAelBB2g7PGl4CK-172" vertex="1" connectable="0">
          <mxGeometry x="0.4817" y="-1" relative="1" as="geometry">
            <mxPoint x="-12" y="7" as="offset" />
          </mxGeometry>
        </mxCell>
        <mxCell id="M3L84cAelBB2g7PGl4CK-173" style="edgeStyle=orthogonalEdgeStyle;rounded=0;orthogonalLoop=1;jettySize=auto;html=1;exitX=0.5;exitY=1;exitDx=0;exitDy=0;entryX=0.5;entryY=0;entryDx=0;entryDy=0;" parent="M3L84cAelBB2g7PGl4CK-6" source="M3L84cAelBB2g7PGl4CK-166" target="M3L84cAelBB2g7PGl4CK-170" edge="1">
          <mxGeometry relative="1" as="geometry">
            <Array as="points">
              <mxPoint x="81" y="150" />
              <mxPoint x="181" y="150" />
            </Array>
          </mxGeometry>
        </mxCell>
        <mxCell id="M3L84cAelBB2g7PGl4CK-204" value="1" style="edgeLabel;html=1;align=center;verticalAlign=middle;resizable=0;points=[];" parent="M3L84cAelBB2g7PGl4CK-173" vertex="1" connectable="0">
          <mxGeometry x="0.7385" relative="1" as="geometry">
            <mxPoint x="13" y="10" as="offset" />
          </mxGeometry>
        </mxCell>
        <mxCell id="M3L84cAelBB2g7PGl4CK-174" style="edgeStyle=orthogonalEdgeStyle;rounded=0;orthogonalLoop=1;jettySize=auto;html=1;exitX=0.75;exitY=1;exitDx=0;exitDy=0;entryX=0.5;entryY=0;entryDx=0;entryDy=0;" parent="M3L84cAelBB2g7PGl4CK-6" source="M3L84cAelBB2g7PGl4CK-166" target="M3L84cAelBB2g7PGl4CK-168" edge="1">
          <mxGeometry relative="1" as="geometry" />
        </mxCell>
        <mxCell id="M3L84cAelBB2g7PGl4CK-175" style="edgeStyle=orthogonalEdgeStyle;rounded=0;orthogonalLoop=1;jettySize=auto;html=1;exitX=1;exitY=0.75;exitDx=0;exitDy=0;entryX=0;entryY=0.5;entryDx=0;entryDy=0;" parent="M3L84cAelBB2g7PGl4CK-6" source="M3L84cAelBB2g7PGl4CK-166" target="M3L84cAelBB2g7PGl4CK-171" edge="1">
          <mxGeometry relative="1" as="geometry" />
        </mxCell>
        <mxCell id="M3L84cAelBB2g7PGl4CK-206" value="1" style="edgeLabel;html=1;align=center;verticalAlign=middle;resizable=0;points=[];" parent="M3L84cAelBB2g7PGl4CK-175" vertex="1" connectable="0">
          <mxGeometry x="0.6295" y="1" relative="1" as="geometry">
            <mxPoint x="4" y="-14" as="offset" />
          </mxGeometry>
        </mxCell>
        <mxCell id="M3L84cAelBB2g7PGl4CK-176" style="edgeStyle=orthogonalEdgeStyle;rounded=0;orthogonalLoop=1;jettySize=auto;html=1;exitX=1;exitY=0.25;exitDx=0;exitDy=0;entryX=0;entryY=0.5;entryDx=0;entryDy=0;" parent="M3L84cAelBB2g7PGl4CK-6" source="M3L84cAelBB2g7PGl4CK-166" target="M3L84cAelBB2g7PGl4CK-169" edge="1">
          <mxGeometry relative="1" as="geometry" />
        </mxCell>
        <mxCell id="M3L84cAelBB2g7PGl4CK-205" value="1" style="edgeLabel;html=1;align=center;verticalAlign=middle;resizable=0;points=[];" parent="M3L84cAelBB2g7PGl4CK-176" vertex="1" connectable="0">
          <mxGeometry x="0.7401" relative="1" as="geometry">
            <mxPoint x="-4" y="10" as="offset" />
          </mxGeometry>
        </mxCell>
        <mxCell id="M3L84cAelBB2g7PGl4CK-218" style="edgeStyle=orthogonalEdgeStyle;rounded=0;orthogonalLoop=1;jettySize=auto;html=1;exitX=0.75;exitY=0;exitDx=0;exitDy=0;entryX=0.5;entryY=0;entryDx=0;entryDy=0;" parent="M3L84cAelBB2g7PGl4CK-6" source="M3L84cAelBB2g7PGl4CK-166" target="M3L84cAelBB2g7PGl4CK-217" edge="1">
          <mxGeometry relative="1" as="geometry">
            <Array as="points">
              <mxPoint x="109" y="30" />
              <mxPoint x="401" y="30" />
            </Array>
          </mxGeometry>
        </mxCell>
        <mxCell id="M3L84cAelBB2g7PGl4CK-219" value="0..*" style="edgeLabel;html=1;align=center;verticalAlign=middle;resizable=0;points=[];" parent="M3L84cAelBB2g7PGl4CK-218" vertex="1" connectable="0">
          <mxGeometry x="0.8658" y="-2" relative="1" as="geometry">
            <mxPoint x="17" y="11" as="offset" />
          </mxGeometry>
        </mxCell>
        <mxCell id="M3L84cAelBB2g7PGl4CK-166" value="«entity»&lt;div&gt;«root»&lt;br&gt;&lt;div&gt;&lt;div&gt;Surgery Room&lt;/div&gt;&lt;/div&gt;&lt;/div&gt;" style="rounded=0;whiteSpace=wrap;html=1;" parent="M3L84cAelBB2g7PGl4CK-6" vertex="1">
          <mxGeometry x="26" y="60" width="110" height="50" as="geometry" />
        </mxCell>
        <mxCell id="M3L84cAelBB2g7PGl4CK-167" value="«value object»&lt;div&gt;Room Number&lt;/div&gt;" style="rounded=0;whiteSpace=wrap;html=1;" parent="M3L84cAelBB2g7PGl4CK-6" vertex="1">
          <mxGeometry x="26" y="170" width="90" height="40" as="geometry" />
        </mxCell>
        <mxCell id="M3L84cAelBB2g7PGl4CK-168" value="«enum»&lt;div&gt;Current Status&lt;br&gt;&lt;/div&gt;" style="rounded=0;whiteSpace=wrap;html=1;" parent="M3L84cAelBB2g7PGl4CK-6" vertex="1">
          <mxGeometry x="246" y="170" width="90" height="40" as="geometry" />
        </mxCell>
        <mxCell id="M3L84cAelBB2g7PGl4CK-169" value="«value object»&lt;div&gt;Capacity&lt;/div&gt;" style="rounded=0;whiteSpace=wrap;html=1;" parent="M3L84cAelBB2g7PGl4CK-6" vertex="1">
          <mxGeometry x="246" y="40" width="90" height="40" as="geometry" />
        </mxCell>
        <mxCell id="M3L84cAelBB2g7PGl4CK-170" value="«value object»&lt;div&gt;Type&lt;/div&gt;" style="rounded=0;whiteSpace=wrap;html=1;" parent="M3L84cAelBB2g7PGl4CK-6" vertex="1">
          <mxGeometry x="136" y="170" width="90" height="40" as="geometry" />
        </mxCell>
        <mxCell id="M3L84cAelBB2g7PGl4CK-171" value="«value object»&lt;div&gt;Assigned Equipment&lt;/div&gt;" style="rounded=0;whiteSpace=wrap;html=1;" parent="M3L84cAelBB2g7PGl4CK-6" vertex="1">
          <mxGeometry x="246" y="95" width="90" height="40" as="geometry" />
        </mxCell>
        <mxCell id="M3L84cAelBB2g7PGl4CK-217" value="«value object»&lt;div&gt;Maintenen&lt;span style=&quot;background-color: initial;&quot;&gt;ce Slots&lt;/span&gt;&lt;/div&gt;" style="rounded=0;whiteSpace=wrap;html=1;" parent="M3L84cAelBB2g7PGl4CK-6" vertex="1">
          <mxGeometry x="356" y="95" width="90" height="40" as="geometry" />
        </mxCell>
        <mxCell id="M3L84cAelBB2g7PGl4CK-16" style="edgeStyle=orthogonalEdgeStyle;rounded=0;orthogonalLoop=1;jettySize=auto;html=1;exitX=0.5;exitY=1;exitDx=0;exitDy=0;" parent="WIyWlLk6GJQsqaUBKTNV-1" edge="1">
          <mxGeometry relative="1" as="geometry">
            <mxPoint x="1371.6399999999999" y="620" as="sourcePoint" />
            <mxPoint x="1371.6399999999999" y="620" as="targetPoint" />
          </mxGeometry>
        </mxCell>
        <mxCell id="M3L84cAelBB2g7PGl4CK-24" value="User Aggregate" style="swimlane;whiteSpace=wrap;html=1;" parent="WIyWlLk6GJQsqaUBKTNV-1" vertex="1">
          <mxGeometry x="1050" y="80" width="460" height="240" as="geometry">
            <mxRectangle x="170" y="40" width="120" height="30" as="alternateBounds" />
          </mxGeometry>
        </mxCell>
        <mxCell id="M3L84cAelBB2g7PGl4CK-25" value="«value object»&lt;div&gt;&lt;span style=&quot;background-color: initial;&quot;&gt;Email&lt;/span&gt;&lt;br&gt;&lt;/div&gt;" style="rounded=0;whiteSpace=wrap;html=1;" parent="M3L84cAelBB2g7PGl4CK-24" vertex="1">
          <mxGeometry x="20" y="110" width="90" height="40" as="geometry" />
        </mxCell>
        <mxCell id="M3L84cAelBB2g7PGl4CK-26" value="«value object»&lt;div&gt;Phone Number&lt;/div&gt;" style="rounded=0;whiteSpace=wrap;html=1;" parent="M3L84cAelBB2g7PGl4CK-24" vertex="1">
          <mxGeometry x="20" y="170" width="90" height="40" as="geometry" />
        </mxCell>
        <mxCell id="M3L84cAelBB2g7PGl4CK-18" value="«value object»&lt;div&gt;UserName&lt;/div&gt;" style="rounded=0;whiteSpace=wrap;html=1;" parent="M3L84cAelBB2g7PGl4CK-24" vertex="1">
          <mxGeometry x="350" y="40" width="90" height="40" as="geometry" />
        </mxCell>
        <mxCell id="M3L84cAelBB2g7PGl4CK-17" value="«value object»&lt;div&gt;FullName&lt;/div&gt;" style="rounded=0;whiteSpace=wrap;html=1;" parent="M3L84cAelBB2g7PGl4CK-24" vertex="1">
          <mxGeometry x="240" y="40" width="90" height="40" as="geometry" />
        </mxCell>
        <mxCell id="M3L84cAelBB2g7PGl4CK-88" value="«value object»&lt;div&gt;First Name&lt;/div&gt;" style="rounded=0;whiteSpace=wrap;html=1;" parent="M3L84cAelBB2g7PGl4CK-24" vertex="1">
          <mxGeometry x="130" y="40" width="90" height="40" as="geometry" />
        </mxCell>
        <mxCell id="M3L84cAelBB2g7PGl4CK-94" value="optional" style="edgeStyle=orthogonalEdgeStyle;rounded=0;orthogonalLoop=1;jettySize=auto;html=1;exitX=0;exitY=0.5;exitDx=0;exitDy=0;entryX=1;entryY=0.5;entryDx=0;entryDy=0;" parent="M3L84cAelBB2g7PGl4CK-24" source="M3L84cAelBB2g7PGl4CK-15" target="M3L84cAelBB2g7PGl4CK-26" edge="1">
          <mxGeometry x="0.0429" y="11" relative="1" as="geometry">
            <Array as="points">
              <mxPoint x="165" y="185" />
              <mxPoint x="165" y="190" />
            </Array>
            <mxPoint x="5" y="-1" as="offset" />
          </mxGeometry>
        </mxCell>
        <mxCell id="M3L84cAelBB2g7PGl4CK-95" value="1" style="edgeStyle=orthogonalEdgeStyle;rounded=0;orthogonalLoop=1;jettySize=auto;html=1;exitX=0;exitY=0.25;exitDx=0;exitDy=0;entryX=1;entryY=0.5;entryDx=0;entryDy=0;" parent="M3L84cAelBB2g7PGl4CK-24" source="M3L84cAelBB2g7PGl4CK-15" target="M3L84cAelBB2g7PGl4CK-25" edge="1">
          <mxGeometry x="0.869" y="-10" relative="1" as="geometry">
            <mxPoint as="offset" />
          </mxGeometry>
        </mxCell>
        <mxCell id="M3L84cAelBB2g7PGl4CK-96" value="1" style="edgeStyle=orthogonalEdgeStyle;rounded=0;orthogonalLoop=1;jettySize=auto;html=1;exitX=0.25;exitY=0;exitDx=0;exitDy=0;entryX=0.5;entryY=1;entryDx=0;entryDy=0;" parent="M3L84cAelBB2g7PGl4CK-24" source="M3L84cAelBB2g7PGl4CK-15" target="M3L84cAelBB2g7PGl4CK-91" edge="1">
          <mxGeometry x="0.6852" y="-10" relative="1" as="geometry">
            <Array as="points">
              <mxPoint x="208" y="100" />
              <mxPoint x="65" y="100" />
            </Array>
            <mxPoint as="offset" />
          </mxGeometry>
        </mxCell>
        <mxCell id="M3L84cAelBB2g7PGl4CK-98" value="1" style="edgeStyle=orthogonalEdgeStyle;rounded=0;orthogonalLoop=1;jettySize=auto;html=1;exitX=0.75;exitY=0;exitDx=0;exitDy=0;entryX=0.5;entryY=1;entryDx=0;entryDy=0;" parent="M3L84cAelBB2g7PGl4CK-24" source="M3L84cAelBB2g7PGl4CK-15" target="M3L84cAelBB2g7PGl4CK-17" edge="1">
          <mxGeometry x="0.8049" y="-5" relative="1" as="geometry">
            <mxPoint as="offset" />
          </mxGeometry>
        </mxCell>
        <mxCell id="M3L84cAelBB2g7PGl4CK-99" style="edgeStyle=orthogonalEdgeStyle;rounded=0;orthogonalLoop=1;jettySize=auto;html=1;exitX=1;exitY=0.25;exitDx=0;exitDy=0;entryX=0.5;entryY=1;entryDx=0;entryDy=0;" parent="M3L84cAelBB2g7PGl4CK-24" source="M3L84cAelBB2g7PGl4CK-15" target="M3L84cAelBB2g7PGl4CK-18" edge="1">
          <mxGeometry relative="1" as="geometry">
            <Array as="points">
              <mxPoint x="300" y="173" />
              <mxPoint x="300" y="100" />
              <mxPoint x="395" y="100" />
            </Array>
          </mxGeometry>
        </mxCell>
        <mxCell id="M3L84cAelBB2g7PGl4CK-100" value="has" style="edgeStyle=orthogonalEdgeStyle;rounded=0;orthogonalLoop=1;jettySize=auto;html=1;exitX=1;exitY=0.5;exitDx=0;exitDy=0;entryX=0.5;entryY=1;entryDx=0;entryDy=0;" parent="M3L84cAelBB2g7PGl4CK-24" source="M3L84cAelBB2g7PGl4CK-15" target="M3L84cAelBB2g7PGl4CK-22" edge="1">
          <mxGeometry x="-0.2857" y="-15" relative="1" as="geometry">
            <mxPoint as="offset" />
          </mxGeometry>
        </mxCell>
        <mxCell id="M3L84cAelBB2g7PGl4CK-135" value="1" style="edgeStyle=orthogonalEdgeStyle;rounded=0;orthogonalLoop=1;jettySize=auto;html=1;exitX=0.5;exitY=0;exitDx=0;exitDy=0;entryX=0.5;entryY=1;entryDx=0;entryDy=0;" parent="M3L84cAelBB2g7PGl4CK-24" source="M3L84cAelBB2g7PGl4CK-15" target="M3L84cAelBB2g7PGl4CK-88" edge="1">
          <mxGeometry x="0.6424" y="-10" relative="1" as="geometry">
            <Array as="points">
              <mxPoint x="235" y="90" />
              <mxPoint x="175" y="90" />
            </Array>
            <mxPoint as="offset" />
          </mxGeometry>
        </mxCell>
        <mxCell id="M3L84cAelBB2g7PGl4CK-15" value="«entity»&lt;div&gt;«root»&lt;/div&gt;&lt;div&gt;User&lt;/div&gt;" style="rounded=0;whiteSpace=wrap;html=1;" parent="M3L84cAelBB2g7PGl4CK-24" vertex="1">
          <mxGeometry x="180" y="160" width="110" height="50" as="geometry" />
        </mxCell>
        <mxCell id="M3L84cAelBB2g7PGl4CK-91" value="«value object»&lt;div&gt;Last Name&lt;/div&gt;" style="rounded=0;whiteSpace=wrap;html=1;" parent="M3L84cAelBB2g7PGl4CK-24" vertex="1">
          <mxGeometry x="20" y="40" width="90" height="40" as="geometry" />
        </mxCell>
        <mxCell id="M3L84cAelBB2g7PGl4CK-22" value="«enum»&lt;div&gt;Role&lt;/div&gt;" style="rounded=0;whiteSpace=wrap;html=1;" parent="M3L84cAelBB2g7PGl4CK-24" vertex="1">
          <mxGeometry x="350" y="110" width="90" height="40" as="geometry" />
        </mxCell>
        <mxCell id="M3L84cAelBB2g7PGl4CK-194" value="1" style="text;html=1;align=center;verticalAlign=middle;whiteSpace=wrap;rounded=0;" parent="M3L84cAelBB2g7PGl4CK-24" vertex="1">
          <mxGeometry x="110" y="190" width="20" height="20" as="geometry" />
        </mxCell>
        <mxCell id="M3L84cAelBB2g7PGl4CK-220" value="1" style="text;html=1;align=center;verticalAlign=middle;resizable=0;points=[];autosize=1;strokeColor=none;fillColor=none;" parent="M3L84cAelBB2g7PGl4CK-24" vertex="1">
          <mxGeometry x="370" y="150" width="30" height="30" as="geometry" />
        </mxCell>
        <mxCell id="M3L84cAelBB2g7PGl4CK-41" value="Operation Aggregate" style="swimlane;whiteSpace=wrap;html=1;" parent="WIyWlLk6GJQsqaUBKTNV-1" vertex="1">
          <mxGeometry x="1205" y="517.5" width="150" height="115" as="geometry" />
        </mxCell>
        <mxCell id="M3L84cAelBB2g7PGl4CK-147" value="«entity»&lt;div&gt;«root»&lt;br&gt;&lt;div&gt;&lt;div&gt;Operation&lt;/div&gt;&lt;/div&gt;&lt;/div&gt;" style="rounded=0;whiteSpace=wrap;html=1;" parent="M3L84cAelBB2g7PGl4CK-41" vertex="1">
          <mxGeometry x="20" y="45.00000000000006" width="110" height="50" as="geometry" />
        </mxCell>
        <mxCell id="M3L84cAelBB2g7PGl4CK-60" value="Patient&lt;span style=&quot;background-color: initial;&quot;&gt;&amp;nbsp;Aggregate&lt;/span&gt;" style="swimlane;whiteSpace=wrap;html=1;" parent="WIyWlLk6GJQsqaUBKTNV-1" vertex="1">
          <mxGeometry x="630" y="200" width="360" height="250" as="geometry">
            <mxRectangle x="-500" y="200" width="150" height="30" as="alternateBounds" />
          </mxGeometry>
        </mxCell>
        <mxCell id="M3L84cAelBB2g7PGl4CK-92" value="«value object»&lt;div&gt;Date of Birth&lt;/div&gt;" style="rounded=0;whiteSpace=wrap;html=1;" parent="M3L84cAelBB2g7PGl4CK-60" vertex="1">
          <mxGeometry x="20" y="40" width="90" height="40" as="geometry" />
        </mxCell>
        <mxCell id="M3L84cAelBB2g7PGl4CK-89" value="«value object»&lt;div&gt;Emergency Contact&lt;br&gt;&lt;/div&gt;" style="rounded=0;whiteSpace=wrap;html=1;" parent="M3L84cAelBB2g7PGl4CK-60" vertex="1">
          <mxGeometry x="20" y="110" width="90" height="40" as="geometry" />
        </mxCell>
        <mxCell id="M3L84cAelBB2g7PGl4CK-90" value="«enum»&lt;div&gt;Gender&lt;/div&gt;" style="rounded=0;whiteSpace=wrap;html=1;direction=west;" parent="M3L84cAelBB2g7PGl4CK-60" vertex="1">
          <mxGeometry x="130" y="40" width="90" height="40" as="geometry" />
        </mxCell>
        <mxCell id="M3L84cAelBB2g7PGl4CK-105" value="1" style="edgeStyle=orthogonalEdgeStyle;rounded=0;orthogonalLoop=1;jettySize=auto;html=1;exitX=0.25;exitY=0;exitDx=0;exitDy=0;entryX=0.5;entryY=1;entryDx=0;entryDy=0;" parent="M3L84cAelBB2g7PGl4CK-60" source="M3L84cAelBB2g7PGl4CK-34" target="M3L84cAelBB2g7PGl4CK-92" edge="1">
          <mxGeometry x="0.7607" y="-10" relative="1" as="geometry">
            <Array as="points">
              <mxPoint x="258" y="100" />
              <mxPoint x="65" y="100" />
            </Array>
            <mxPoint as="offset" />
          </mxGeometry>
        </mxCell>
        <mxCell id="M3L84cAelBB2g7PGl4CK-107" value="identified by" style="edgeStyle=orthogonalEdgeStyle;rounded=0;orthogonalLoop=1;jettySize=auto;html=1;exitX=0.75;exitY=0;exitDx=0;exitDy=0;entryX=0.75;entryY=1;entryDx=0;entryDy=0;" parent="M3L84cAelBB2g7PGl4CK-60" source="M3L84cAelBB2g7PGl4CK-34" target="M3L84cAelBB2g7PGl4CK-102" edge="1">
          <mxGeometry x="-0.0253" y="-20" relative="1" as="geometry">
            <Array as="points">
              <mxPoint x="312" y="130" />
              <mxPoint x="308" y="130" />
            </Array>
            <mxPoint x="19" y="20" as="offset" />
          </mxGeometry>
        </mxCell>
        <mxCell id="M3L84cAelBB2g7PGl4CK-108" style="edgeStyle=orthogonalEdgeStyle;rounded=0;orthogonalLoop=1;jettySize=auto;html=1;exitX=0;exitY=0.25;exitDx=0;exitDy=0;entryX=0.75;entryY=1;entryDx=0;entryDy=0;" parent="M3L84cAelBB2g7PGl4CK-60" source="M3L84cAelBB2g7PGl4CK-34" target="M3L84cAelBB2g7PGl4CK-103" edge="1">
          <mxGeometry relative="1" as="geometry" />
        </mxCell>
        <mxCell id="M3L84cAelBB2g7PGl4CK-109" value="1" style="edgeStyle=orthogonalEdgeStyle;rounded=0;orthogonalLoop=1;jettySize=auto;html=1;exitX=0;exitY=0.5;exitDx=0;exitDy=0;entryX=0.5;entryY=1;entryDx=0;entryDy=0;" parent="M3L84cAelBB2g7PGl4CK-60" source="M3L84cAelBB2g7PGl4CK-34" target="M3L84cAelBB2g7PGl4CK-89" edge="1">
          <mxGeometry x="0.6818" y="-10" relative="1" as="geometry">
            <Array as="points">
              <mxPoint x="160" y="205" />
              <mxPoint x="160" y="170" />
              <mxPoint x="65" y="170" />
            </Array>
            <mxPoint as="offset" />
          </mxGeometry>
        </mxCell>
        <mxCell id="M3L84cAelBB2g7PGl4CK-134" value="1" style="edgeStyle=orthogonalEdgeStyle;rounded=0;orthogonalLoop=1;jettySize=auto;html=1;exitX=0.5;exitY=0;exitDx=0;exitDy=0;entryX=0.5;entryY=0;entryDx=0;entryDy=0;" parent="M3L84cAelBB2g7PGl4CK-60" source="M3L84cAelBB2g7PGl4CK-34" target="M3L84cAelBB2g7PGl4CK-90" edge="1">
          <mxGeometry x="0.7619" y="-10" relative="1" as="geometry">
            <Array as="points">
              <mxPoint x="285" y="90" />
              <mxPoint x="175" y="90" />
            </Array>
            <mxPoint as="offset" />
          </mxGeometry>
        </mxCell>
        <mxCell id="M3L84cAelBB2g7PGl4CK-34" value="«entity»&lt;div&gt;«root»&lt;br&gt;&lt;div&gt;&lt;div&gt;Patient&lt;/div&gt;&lt;/div&gt;&lt;/div&gt;" style="rounded=0;whiteSpace=wrap;html=1;" parent="M3L84cAelBB2g7PGl4CK-60" vertex="1">
          <mxGeometry x="230" y="180" width="110" height="50" as="geometry" />
        </mxCell>
        <mxCell id="M3L84cAelBB2g7PGl4CK-102" value="«value object»&lt;div&gt;&lt;span style=&quot;background-color: initial;&quot;&gt;Medical Record Number&lt;/span&gt;&lt;/div&gt;" style="rounded=0;whiteSpace=wrap;html=1;" parent="M3L84cAelBB2g7PGl4CK-60" vertex="1">
          <mxGeometry x="240" y="40" width="90" height="40" as="geometry" />
        </mxCell>
        <mxCell id="M3L84cAelBB2g7PGl4CK-103" value="«value object»&lt;div&gt;Appointment History&lt;/div&gt;" style="rounded=0;whiteSpace=wrap;html=1;" parent="M3L84cAelBB2g7PGl4CK-60" vertex="1">
          <mxGeometry x="130" y="110" width="90" height="40" as="geometry" />
        </mxCell>
        <mxCell id="M3L84cAelBB2g7PGl4CK-195" value="1" style="text;html=1;align=center;verticalAlign=middle;whiteSpace=wrap;rounded=0;" parent="M3L84cAelBB2g7PGl4CK-60" vertex="1">
          <mxGeometry x="310" y="80" width="20" height="20" as="geometry" />
        </mxCell>
        <mxCell id="M3L84cAelBB2g7PGl4CK-63" value="Staff Aggregate" style="swimlane;whiteSpace=wrap;html=1;" parent="WIyWlLk6GJQsqaUBKTNV-1" vertex="1">
          <mxGeometry x="1570" y="200" width="240" height="250" as="geometry" />
        </mxCell>
        <mxCell id="M3L84cAelBB2g7PGl4CK-112" value="«value object»&lt;div&gt;Availability Slots&lt;br&gt;&lt;/div&gt;" style="rounded=0;whiteSpace=wrap;html=1;" parent="M3L84cAelBB2g7PGl4CK-63" vertex="1">
          <mxGeometry x="130" y="40" width="90" height="40" as="geometry" />
        </mxCell>
        <mxCell id="M3L84cAelBB2g7PGl4CK-114" value="«value object»&lt;div&gt;License Number&lt;br&gt;&lt;/div&gt;" style="rounded=0;whiteSpace=wrap;html=1;" parent="M3L84cAelBB2g7PGl4CK-63" vertex="1">
          <mxGeometry x="18.64" y="40" width="90" height="40" as="geometry" />
        </mxCell>
        <mxCell id="M3L84cAelBB2g7PGl4CK-116" value="identified by" style="edgeStyle=orthogonalEdgeStyle;rounded=0;orthogonalLoop=1;jettySize=auto;html=1;exitX=0.25;exitY=0;exitDx=0;exitDy=0;entryX=0.25;entryY=1;entryDx=0;entryDy=0;" parent="M3L84cAelBB2g7PGl4CK-63" source="M3L84cAelBB2g7PGl4CK-40" target="M3L84cAelBB2g7PGl4CK-114" edge="1">
          <mxGeometry relative="1" as="geometry" />
        </mxCell>
        <mxCell id="M3L84cAelBB2g7PGl4CK-136" style="edgeStyle=orthogonalEdgeStyle;rounded=0;orthogonalLoop=1;jettySize=auto;html=1;exitX=0.75;exitY=0;exitDx=0;exitDy=0;entryX=0.5;entryY=1;entryDx=0;entryDy=0;" parent="M3L84cAelBB2g7PGl4CK-63" source="M3L84cAelBB2g7PGl4CK-40" target="M3L84cAelBB2g7PGl4CK-112" edge="1">
          <mxGeometry relative="1" as="geometry">
            <Array as="points">
              <mxPoint x="102" y="100" />
              <mxPoint x="175" y="100" />
            </Array>
          </mxGeometry>
        </mxCell>
        <mxCell id="M3L84cAelBB2g7PGl4CK-40" value="«entity»&lt;div&gt;«root»&lt;/div&gt;&lt;div&gt;&lt;div&gt;&lt;div&gt;Staff&lt;/div&gt;&lt;/div&gt;&lt;/div&gt;" style="rounded=0;whiteSpace=wrap;html=1;" parent="M3L84cAelBB2g7PGl4CK-63" vertex="1">
          <mxGeometry x="20" y="180" width="110" height="50" as="geometry" />
        </mxCell>
        <mxCell id="M3L84cAelBB2g7PGl4CK-119" value="Operation Request&lt;span style=&quot;background-color: initial;&quot;&gt;&amp;nbsp;Aggregate&lt;/span&gt;" style="swimlane;whiteSpace=wrap;html=1;" parent="WIyWlLk6GJQsqaUBKTNV-1" vertex="1">
          <mxGeometry x="650" y="490" width="320" height="170" as="geometry">
            <mxRectangle x="-500" y="200" width="150" height="30" as="alternateBounds" />
          </mxGeometry>
        </mxCell>
        <mxCell id="M3L84cAelBB2g7PGl4CK-198" value="" style="edgeStyle=orthogonalEdgeStyle;rounded=0;orthogonalLoop=1;jettySize=auto;html=1;" parent="M3L84cAelBB2g7PGl4CK-119" source="M3L84cAelBB2g7PGl4CK-120" target="M3L84cAelBB2g7PGl4CK-129" edge="1">
          <mxGeometry relative="1" as="geometry" />
        </mxCell>
        <mxCell id="M3L84cAelBB2g7PGl4CK-120" value="«value object»&lt;div&gt;Deadline Date&lt;/div&gt;" style="rounded=0;whiteSpace=wrap;html=1;" parent="M3L84cAelBB2g7PGl4CK-119" vertex="1">
          <mxGeometry x="20" y="40" width="90" height="40" as="geometry" />
        </mxCell>
        <mxCell id="M3L84cAelBB2g7PGl4CK-121" value="«value object»&lt;div&gt;Priority&lt;br&gt;&lt;/div&gt;" style="rounded=0;whiteSpace=wrap;html=1;" parent="M3L84cAelBB2g7PGl4CK-119" vertex="1">
          <mxGeometry x="20" y="110" width="90" height="40" as="geometry" />
        </mxCell>
        <mxCell id="M3L84cAelBB2g7PGl4CK-137" style="edgeStyle=orthogonalEdgeStyle;rounded=0;orthogonalLoop=1;jettySize=auto;html=1;exitX=0;exitY=0.75;exitDx=0;exitDy=0;entryX=1;entryY=0.5;entryDx=0;entryDy=0;" parent="M3L84cAelBB2g7PGl4CK-119" source="M3L84cAelBB2g7PGl4CK-129" target="M3L84cAelBB2g7PGl4CK-121" edge="1">
          <mxGeometry relative="1" as="geometry" />
        </mxCell>
        <mxCell id="M3L84cAelBB2g7PGl4CK-200" value="1" style="edgeLabel;html=1;align=center;verticalAlign=middle;resizable=0;points=[];" parent="M3L84cAelBB2g7PGl4CK-137" vertex="1" connectable="0">
          <mxGeometry x="0.5159" y="-1" relative="1" as="geometry">
            <mxPoint x="-14" y="11" as="offset" />
          </mxGeometry>
        </mxCell>
        <mxCell id="M3L84cAelBB2g7PGl4CK-138" style="edgeStyle=orthogonalEdgeStyle;rounded=0;orthogonalLoop=1;jettySize=auto;html=1;exitX=0;exitY=0.25;exitDx=0;exitDy=0;entryX=1;entryY=0.5;entryDx=0;entryDy=0;" parent="M3L84cAelBB2g7PGl4CK-119" source="M3L84cAelBB2g7PGl4CK-129" target="M3L84cAelBB2g7PGl4CK-120" edge="1">
          <mxGeometry relative="1" as="geometry" />
        </mxCell>
        <mxCell id="M3L84cAelBB2g7PGl4CK-199" value="1" style="edgeLabel;html=1;align=center;verticalAlign=middle;resizable=0;points=[];" parent="M3L84cAelBB2g7PGl4CK-138" vertex="1" connectable="0">
          <mxGeometry x="0.3771" y="2" relative="1" as="geometry">
            <mxPoint x="-21" y="-12" as="offset" />
          </mxGeometry>
        </mxCell>
        <mxCell id="M3L84cAelBB2g7PGl4CK-129" value="«entity»&lt;div&gt;«root»&lt;br&gt;&lt;div&gt;&lt;div&gt;Operation Request&lt;/div&gt;&lt;/div&gt;&lt;/div&gt;" style="rounded=0;whiteSpace=wrap;html=1;" parent="M3L84cAelBB2g7PGl4CK-119" vertex="1">
          <mxGeometry x="187" y="70" width="110" height="50" as="geometry" />
        </mxCell>
        <mxCell id="M3L84cAelBB2g7PGl4CK-139" value="Operation Type&lt;span style=&quot;background-color: initial;&quot;&gt;&amp;nbsp;Aggregate&lt;/span&gt;" style="swimlane;whiteSpace=wrap;html=1;" parent="WIyWlLk6GJQsqaUBKTNV-1" vertex="1">
          <mxGeometry x="1570" y="490" width="320" height="170" as="geometry">
            <mxRectangle x="-500" y="200" width="150" height="30" as="alternateBounds" />
          </mxGeometry>
        </mxCell>
        <mxCell id="M3L84cAelBB2g7PGl4CK-140" value="«value object»&lt;div&gt;Name&lt;/div&gt;" style="rounded=0;whiteSpace=wrap;html=1;" parent="M3L84cAelBB2g7PGl4CK-139" vertex="1">
          <mxGeometry x="190" y="40" width="90" height="40" as="geometry" />
        </mxCell>
        <mxCell id="M3L84cAelBB2g7PGl4CK-141" value="«value object»&lt;div&gt;Estimated Duration&lt;br&gt;&lt;/div&gt;" style="rounded=0;whiteSpace=wrap;html=1;" parent="M3L84cAelBB2g7PGl4CK-139" vertex="1">
          <mxGeometry x="190" y="110" width="90" height="40" as="geometry" />
        </mxCell>
        <mxCell id="M3L84cAelBB2g7PGl4CK-145" style="edgeStyle=orthogonalEdgeStyle;rounded=0;orthogonalLoop=1;jettySize=auto;html=1;exitX=1;exitY=0.25;exitDx=0;exitDy=0;entryX=0;entryY=0.5;entryDx=0;entryDy=0;" parent="M3L84cAelBB2g7PGl4CK-139" source="M3L84cAelBB2g7PGl4CK-144" target="M3L84cAelBB2g7PGl4CK-140" edge="1">
          <mxGeometry relative="1" as="geometry" />
        </mxCell>
        <mxCell id="M3L84cAelBB2g7PGl4CK-146" style="edgeStyle=orthogonalEdgeStyle;rounded=0;orthogonalLoop=1;jettySize=auto;html=1;exitX=1;exitY=0.75;exitDx=0;exitDy=0;entryX=0;entryY=0.5;entryDx=0;entryDy=0;" parent="M3L84cAelBB2g7PGl4CK-139" source="M3L84cAelBB2g7PGl4CK-144" target="M3L84cAelBB2g7PGl4CK-141" edge="1">
          <mxGeometry relative="1" as="geometry" />
        </mxCell>
        <mxCell id="M3L84cAelBB2g7PGl4CK-196" value="1" style="edgeLabel;html=1;align=center;verticalAlign=middle;resizable=0;points=[];" parent="M3L84cAelBB2g7PGl4CK-146" vertex="1" connectable="0">
          <mxGeometry x="0.5205" y="1" relative="1" as="geometry">
            <mxPoint x="10" y="14" as="offset" />
          </mxGeometry>
        </mxCell>
        <mxCell id="M3L84cAelBB2g7PGl4CK-144" value="«entity»&lt;div&gt;«root»&lt;br&gt;&lt;div&gt;&lt;div&gt;Operation Type&lt;/div&gt;&lt;/div&gt;&lt;/div&gt;" style="rounded=0;whiteSpace=wrap;html=1;" parent="M3L84cAelBB2g7PGl4CK-139" vertex="1">
          <mxGeometry x="20" y="70" width="110" height="50" as="geometry" />
        </mxCell>
        <mxCell id="M3L84cAelBB2g7PGl4CK-197" value="1" style="text;html=1;align=center;verticalAlign=middle;resizable=0;points=[];autosize=1;strokeColor=none;fillColor=none;" parent="M3L84cAelBB2g7PGl4CK-139" vertex="1">
          <mxGeometry x="170" y="60" width="30" height="30" as="geometry" />
        </mxCell>
        <mxCell id="M3L84cAelBB2g7PGl4CK-151" style="edgeStyle=orthogonalEdgeStyle;rounded=0;orthogonalLoop=1;jettySize=auto;html=1;exitX=1;exitY=0.5;exitDx=0;exitDy=0;entryX=0;entryY=0.5;entryDx=0;entryDy=0;" parent="WIyWlLk6GJQsqaUBKTNV-1" source="M3L84cAelBB2g7PGl4CK-147" target="M3L84cAelBB2g7PGl4CK-144" edge="1">
          <mxGeometry relative="1" as="geometry" />
        </mxCell>
        <mxCell id="M3L84cAelBB2g7PGl4CK-157" value="has" style="edgeLabel;html=1;align=center;verticalAlign=middle;resizable=0;points=[];" parent="M3L84cAelBB2g7PGl4CK-151" vertex="1" connectable="0">
          <mxGeometry x="-0.2369" y="2" relative="1" as="geometry">
            <mxPoint x="-14" y="-10" as="offset" />
          </mxGeometry>
        </mxCell>
        <mxCell id="M3L84cAelBB2g7PGl4CK-152" style="edgeStyle=orthogonalEdgeStyle;rounded=0;orthogonalLoop=1;jettySize=auto;html=1;exitX=1;exitY=0.5;exitDx=0;exitDy=0;entryX=0;entryY=0.5;entryDx=0;entryDy=0;" parent="WIyWlLk6GJQsqaUBKTNV-1" source="M3L84cAelBB2g7PGl4CK-129" target="M3L84cAelBB2g7PGl4CK-147" edge="1">
          <mxGeometry relative="1" as="geometry" />
        </mxCell>
        <mxCell id="M3L84cAelBB2g7PGl4CK-178" value="is a" style="edgeLabel;html=1;align=center;verticalAlign=middle;resizable=0;points=[];" parent="M3L84cAelBB2g7PGl4CK-152" vertex="1" connectable="0">
          <mxGeometry x="-0.165" y="-6" relative="1" as="geometry">
            <mxPoint x="16" y="9" as="offset" />
          </mxGeometry>
        </mxCell>
        <mxCell id="M3L84cAelBB2g7PGl4CK-153" style="edgeStyle=orthogonalEdgeStyle;rounded=0;orthogonalLoop=1;jettySize=auto;html=1;exitX=0.75;exitY=0;exitDx=0;exitDy=0;entryX=0.75;entryY=1;entryDx=0;entryDy=0;" parent="WIyWlLk6GJQsqaUBKTNV-1" source="M3L84cAelBB2g7PGl4CK-129" target="M3L84cAelBB2g7PGl4CK-34" edge="1">
          <mxGeometry relative="1" as="geometry">
            <Array as="points">
              <mxPoint x="920" y="530" />
              <mxPoint x="1000" y="530" />
              <mxPoint x="1000" y="480" />
              <mxPoint x="943" y="480" />
            </Array>
          </mxGeometry>
        </mxCell>
        <mxCell id="M3L84cAelBB2g7PGl4CK-156" value="regarding a" style="edgeLabel;html=1;align=center;verticalAlign=middle;resizable=0;points=[];" parent="M3L84cAelBB2g7PGl4CK-153" vertex="1" connectable="0">
          <mxGeometry x="0.4755" y="-1" relative="1" as="geometry">
            <mxPoint x="17" y="-9" as="offset" />
          </mxGeometry>
        </mxCell>
        <mxCell id="M3L84cAelBB2g7PGl4CK-155" value="is made by a doctor" style="edgeStyle=orthogonalEdgeStyle;rounded=0;orthogonalLoop=1;jettySize=auto;html=1;exitX=1;exitY=0.25;exitDx=0;exitDy=0;entryX=0;entryY=0.5;entryDx=0;entryDy=0;" parent="WIyWlLk6GJQsqaUBKTNV-1" source="M3L84cAelBB2g7PGl4CK-129" target="M3L84cAelBB2g7PGl4CK-40" edge="1">
          <mxGeometry x="0.1568" y="10" relative="1" as="geometry">
            <Array as="points">
              <mxPoint x="1110" y="572" />
              <mxPoint x="1110" y="405" />
            </Array>
            <mxPoint as="offset" />
          </mxGeometry>
        </mxCell>
        <mxCell id="M3L84cAelBB2g7PGl4CK-158" value="Appointment&lt;span style=&quot;background-color: initial;&quot;&gt;&amp;nbsp;Aggregate&lt;/span&gt;" style="swimlane;whiteSpace=wrap;html=1;" parent="WIyWlLk6GJQsqaUBKTNV-1" vertex="1">
          <mxGeometry x="827" y="700" width="320" height="170" as="geometry">
            <mxRectangle x="-500" y="200" width="150" height="30" as="alternateBounds" />
          </mxGeometry>
        </mxCell>
        <mxCell id="M3L84cAelBB2g7PGl4CK-159" value="«value object»&lt;div&gt;Date and Time&lt;/div&gt;" style="rounded=0;whiteSpace=wrap;html=1;" parent="M3L84cAelBB2g7PGl4CK-158" vertex="1">
          <mxGeometry x="20" y="40" width="90" height="40" as="geometry" />
        </mxCell>
        <mxCell id="M3L84cAelBB2g7PGl4CK-160" value="«enum»&lt;div&gt;Status&lt;br&gt;&lt;/div&gt;" style="rounded=0;whiteSpace=wrap;html=1;" parent="M3L84cAelBB2g7PGl4CK-158" vertex="1">
          <mxGeometry x="20" y="110" width="90" height="40" as="geometry" />
        </mxCell>
        <mxCell id="M3L84cAelBB2g7PGl4CK-161" style="edgeStyle=orthogonalEdgeStyle;rounded=0;orthogonalLoop=1;jettySize=auto;html=1;exitX=0;exitY=0.75;exitDx=0;exitDy=0;entryX=1;entryY=0.5;entryDx=0;entryDy=0;" parent="M3L84cAelBB2g7PGl4CK-158" source="M3L84cAelBB2g7PGl4CK-163" target="M3L84cAelBB2g7PGl4CK-160" edge="1">
          <mxGeometry relative="1" as="geometry" />
        </mxCell>
        <mxCell id="M3L84cAelBB2g7PGl4CK-201" value="1" style="edgeLabel;html=1;align=center;verticalAlign=middle;resizable=0;points=[];" parent="M3L84cAelBB2g7PGl4CK-161" vertex="1" connectable="0">
          <mxGeometry x="0.5174" y="-1" relative="1" as="geometry">
            <mxPoint x="-11" y="11" as="offset" />
          </mxGeometry>
        </mxCell>
        <mxCell id="M3L84cAelBB2g7PGl4CK-162" style="edgeStyle=orthogonalEdgeStyle;rounded=0;orthogonalLoop=1;jettySize=auto;html=1;exitX=0;exitY=0.25;exitDx=0;exitDy=0;entryX=1;entryY=0.5;entryDx=0;entryDy=0;" parent="M3L84cAelBB2g7PGl4CK-158" source="M3L84cAelBB2g7PGl4CK-163" target="M3L84cAelBB2g7PGl4CK-159" edge="1">
          <mxGeometry relative="1" as="geometry" />
        </mxCell>
        <mxCell id="M3L84cAelBB2g7PGl4CK-202" value="1" style="edgeLabel;html=1;align=center;verticalAlign=middle;resizable=0;points=[];" parent="M3L84cAelBB2g7PGl4CK-162" vertex="1" connectable="0">
          <mxGeometry x="0.3014" relative="1" as="geometry">
            <mxPoint x="-22" y="-10" as="offset" />
          </mxGeometry>
        </mxCell>
        <mxCell id="M3L84cAelBB2g7PGl4CK-163" value="«entity»&lt;div&gt;«root»&lt;br&gt;&lt;div&gt;&lt;div&gt;Appoin&lt;span style=&quot;background-color: initial;&quot;&gt;tment&lt;/span&gt;&lt;/div&gt;&lt;/div&gt;&lt;/div&gt;" style="rounded=0;whiteSpace=wrap;html=1;" parent="M3L84cAelBB2g7PGl4CK-158" vertex="1">
          <mxGeometry x="187" y="70" width="110" height="50" as="geometry" />
        </mxCell>
        <mxCell id="M3L84cAelBB2g7PGl4CK-164" style="edgeStyle=orthogonalEdgeStyle;rounded=0;orthogonalLoop=1;jettySize=auto;html=1;exitX=1;exitY=0.25;exitDx=0;exitDy=0;entryX=0.5;entryY=1;entryDx=0;entryDy=0;" parent="WIyWlLk6GJQsqaUBKTNV-1" source="M3L84cAelBB2g7PGl4CK-163" target="M3L84cAelBB2g7PGl4CK-129" edge="1">
          <mxGeometry relative="1" as="geometry">
            <Array as="points">
              <mxPoint x="1180" y="783" />
              <mxPoint x="1180" y="680" />
              <mxPoint x="892" y="680" />
            </Array>
          </mxGeometry>
        </mxCell>
        <mxCell id="M3L84cAelBB2g7PGl4CK-165" value="regarding a" style="edgeLabel;html=1;align=center;verticalAlign=middle;resizable=0;points=[];" parent="M3L84cAelBB2g7PGl4CK-164" vertex="1" connectable="0">
          <mxGeometry x="0.2256" y="-2" relative="1" as="geometry">
            <mxPoint x="8" y="-8" as="offset" />
          </mxGeometry>
        </mxCell>
        <mxCell id="M3L84cAelBB2g7PGl4CK-177" value="in a" style="edgeStyle=orthogonalEdgeStyle;rounded=0;orthogonalLoop=1;jettySize=auto;html=1;exitX=1;exitY=0.5;exitDx=0;exitDy=0;entryX=0;entryY=0.5;entryDx=0;entryDy=0;" parent="WIyWlLk6GJQsqaUBKTNV-1" source="M3L84cAelBB2g7PGl4CK-163" target="M3L84cAelBB2g7PGl4CK-166" edge="1">
          <mxGeometry x="-0.0753" y="-15" relative="1" as="geometry">
            <mxPoint as="offset" />
          </mxGeometry>
        </mxCell>
        <mxCell id="M3L84cAelBB2g7PGl4CK-179" style="edgeStyle=orthogonalEdgeStyle;rounded=0;orthogonalLoop=1;jettySize=auto;html=1;exitX=1;exitY=0.5;exitDx=0;exitDy=0;entryX=0.25;entryY=1;entryDx=0;entryDy=0;" parent="WIyWlLk6GJQsqaUBKTNV-1" source="M3L84cAelBB2g7PGl4CK-34" target="M3L84cAelBB2g7PGl4CK-15" edge="1">
          <mxGeometry relative="1" as="geometry">
            <Array as="points">
              <mxPoint x="1040" y="405" />
              <mxPoint x="1040" y="350" />
              <mxPoint x="1258" y="350" />
            </Array>
          </mxGeometry>
        </mxCell>
        <mxCell id="M3L84cAelBB2g7PGl4CK-180" value="is a" style="edgeLabel;html=1;align=center;verticalAlign=middle;resizable=0;points=[];" parent="M3L84cAelBB2g7PGl4CK-179" vertex="1" connectable="0">
          <mxGeometry x="-0.0532" y="3" relative="1" as="geometry">
            <mxPoint x="1" y="13" as="offset" />
          </mxGeometry>
        </mxCell>
        <mxCell id="M3L84cAelBB2g7PGl4CK-181" value="is a" style="edgeStyle=orthogonalEdgeStyle;rounded=0;orthogonalLoop=1;jettySize=auto;html=1;exitX=0;exitY=0.25;exitDx=0;exitDy=0;entryX=0.75;entryY=1;entryDx=0;entryDy=0;" parent="WIyWlLk6GJQsqaUBKTNV-1" source="M3L84cAelBB2g7PGl4CK-40" target="M3L84cAelBB2g7PGl4CK-15" edge="1">
          <mxGeometry x="0.1052" y="-13" relative="1" as="geometry">
            <mxPoint as="offset" />
          </mxGeometry>
        </mxCell>
        <mxCell id="M3L84cAelBB2g7PGl4CK-207" value="Specialization&lt;span style=&quot;background-color: initial;&quot;&gt;&amp;nbsp;Aggregate&lt;/span&gt;" style="swimlane;whiteSpace=wrap;html=1;" parent="WIyWlLk6GJQsqaUBKTNV-1" vertex="1">
          <mxGeometry x="1880" y="340" width="150" height="100" as="geometry" />
        </mxCell>
        <mxCell id="M3L84cAelBB2g7PGl4CK-113" value="&lt;div&gt;«entity&lt;span style=&quot;background-color: initial;&quot;&gt;»&lt;/span&gt;&lt;br&gt;&lt;/div&gt;«value object»&lt;div&gt;Specialization&lt;br&gt;&lt;/div&gt;" style="rounded=0;whiteSpace=wrap;html=1;" parent="M3L84cAelBB2g7PGl4CK-207" vertex="1">
          <mxGeometry x="30" y="40" width="90" height="40" as="geometry" />
        </mxCell>
        <mxCell id="M3L84cAelBB2g7PGl4CK-214" style="edgeStyle=orthogonalEdgeStyle;rounded=0;orthogonalLoop=1;jettySize=auto;html=1;exitX=1;exitY=0.5;exitDx=0;exitDy=0;entryX=0;entryY=0.5;entryDx=0;entryDy=0;" parent="WIyWlLk6GJQsqaUBKTNV-1" source="M3L84cAelBB2g7PGl4CK-40" target="M3L84cAelBB2g7PGl4CK-113" edge="1">
          <mxGeometry relative="1" as="geometry" />
        </mxCell>
        <mxCell id="M3L84cAelBB2g7PGl4CK-215" value="has" style="edgeLabel;html=1;align=center;verticalAlign=middle;resizable=0;points=[];" parent="M3L84cAelBB2g7PGl4CK-214" vertex="1" connectable="0">
          <mxGeometry x="-0.206" y="2" relative="1" as="geometry">
            <mxPoint y="-13" as="offset" />
          </mxGeometry>
        </mxCell>
        <mxCell id="M3L84cAelBB2g7PGl4CK-216" style="edgeStyle=orthogonalEdgeStyle;rounded=0;orthogonalLoop=1;jettySize=auto;html=1;exitX=0.5;exitY=0;exitDx=0;exitDy=0;entryX=0.5;entryY=1;entryDx=0;entryDy=0;" parent="WIyWlLk6GJQsqaUBKTNV-1" source="M3L84cAelBB2g7PGl4CK-144" target="M3L84cAelBB2g7PGl4CK-113" edge="1">
          <mxGeometry relative="1" as="geometry">
            <Array as="points">
              <mxPoint x="1645" y="470" />
              <mxPoint x="1955" y="470" />
            </Array>
          </mxGeometry>
        </mxCell>
        <mxCell id="kdSf4CC2pK3eqdQerMEu-1" value="Medical Record&lt;span style=&quot;background-color: initial; color: light-dark(rgb(0, 0, 0), rgb(255, 255, 255));&quot;&gt;&amp;nbsp;Aggregate&lt;/span&gt;" style="swimlane;whiteSpace=wrap;html=1;" vertex="1" parent="WIyWlLk6GJQsqaUBKTNV-1">
          <mxGeometry x="390" y="260" width="150" height="115" as="geometry">
            <mxRectangle x="234" y="200" width="150" height="30" as="alternateBounds" />
          </mxGeometry>
        </mxCell>
        <mxCell id="kdSf4CC2pK3eqdQerMEu-11" value="«entity»&lt;div&gt;«root»&lt;br&gt;&lt;div&gt;&lt;div&gt;Medical Record&lt;/div&gt;&lt;/div&gt;&lt;/div&gt;" style="rounded=0;whiteSpace=wrap;html=1;" vertex="1" parent="kdSf4CC2pK3eqdQerMEu-1">
          <mxGeometry x="20" y="45" width="110" height="50" as="geometry" />
        </mxCell>
        <mxCell id="M3L84cAelBB2g7PGl4CK-110" value="1" style="edgeStyle=orthogonalEdgeStyle;rounded=0;orthogonalLoop=1;jettySize=auto;html=1;exitX=0;exitY=0.75;exitDx=0;exitDy=0;entryX=1;entryY=0.5;entryDx=0;entryDy=0;" parent="WIyWlLk6GJQsqaUBKTNV-1" source="M3L84cAelBB2g7PGl4CK-34" target="kdSf4CC2pK3eqdQerMEu-11" edge="1">
          <mxGeometry x="0.9144" y="-10" relative="1" as="geometry">
            <mxPoint as="offset" />
            <mxPoint x="695" y="420" as="targetPoint" />
            <Array as="points">
              <mxPoint x="600" y="418" />
              <mxPoint x="600" y="330" />
            </Array>
          </mxGeometry>
        </mxCell>
        <mxCell id="kdSf4CC2pK3eqdQerMEu-16" value="has a" style="edgeLabel;html=1;align=center;verticalAlign=middle;resizable=0;points=[];" vertex="1" connectable="0" parent="M3L84cAelBB2g7PGl4CK-110">
          <mxGeometry x="0.2856" y="-1" relative="1" as="geometry">
            <mxPoint y="1" as="offset" />
          </mxGeometry>
        </mxCell>
        <mxCell id="kdSf4CC2pK3eqdQerMEu-17" value="Medical Condition&lt;span style=&quot;background-color: initial; color: light-dark(rgb(0, 0, 0), rgb(255, 255, 255));&quot;&gt;&amp;nbsp;Aggregate&lt;/span&gt;" style="swimlane;whiteSpace=wrap;html=1;" vertex="1" parent="WIyWlLk6GJQsqaUBKTNV-1">
          <mxGeometry x="300" y="460" width="300" height="250" as="geometry">
            <mxRectangle x="234" y="200" width="150" height="30" as="alternateBounds" />
          </mxGeometry>
        </mxCell>
        <mxCell id="kdSf4CC2pK3eqdQerMEu-27" style="edgeStyle=orthogonalEdgeStyle;rounded=0;orthogonalLoop=1;jettySize=auto;html=1;entryX=0.5;entryY=1;entryDx=0;entryDy=0;exitX=1;exitY=0.25;exitDx=0;exitDy=0;" edge="1" parent="kdSf4CC2pK3eqdQerMEu-17" source="kdSf4CC2pK3eqdQerMEu-18" target="kdSf4CC2pK3eqdQerMEu-22">
          <mxGeometry relative="1" as="geometry" />
        </mxCell>
        <mxCell id="kdSf4CC2pK3eqdQerMEu-28" value="1" style="edgeLabel;html=1;align=center;verticalAlign=middle;resizable=0;points=[];" vertex="1" connectable="0" parent="kdSf4CC2pK3eqdQerMEu-27">
          <mxGeometry x="0.1448" relative="1" as="geometry">
            <mxPoint x="5" y="-11" as="offset" />
          </mxGeometry>
        </mxCell>
        <mxCell id="kdSf4CC2pK3eqdQerMEu-29" style="edgeStyle=orthogonalEdgeStyle;rounded=0;orthogonalLoop=1;jettySize=auto;html=1;entryX=0.5;entryY=1;entryDx=0;entryDy=0;exitX=0;exitY=0.25;exitDx=0;exitDy=0;" edge="1" parent="kdSf4CC2pK3eqdQerMEu-17" source="kdSf4CC2pK3eqdQerMEu-18" target="kdSf4CC2pK3eqdQerMEu-26">
          <mxGeometry relative="1" as="geometry" />
        </mxCell>
        <mxCell id="kdSf4CC2pK3eqdQerMEu-30" value="1" style="edgeLabel;html=1;align=center;verticalAlign=middle;resizable=0;points=[];" vertex="1" connectable="0" parent="kdSf4CC2pK3eqdQerMEu-29">
          <mxGeometry x="0.1172" relative="1" as="geometry">
            <mxPoint x="-15" y="-22" as="offset" />
          </mxGeometry>
        </mxCell>
        <mxCell id="kdSf4CC2pK3eqdQerMEu-31" style="edgeStyle=orthogonalEdgeStyle;rounded=0;orthogonalLoop=1;jettySize=auto;html=1;exitX=0;exitY=0.75;exitDx=0;exitDy=0;entryX=0.5;entryY=0;entryDx=0;entryDy=0;" edge="1" parent="kdSf4CC2pK3eqdQerMEu-17" source="kdSf4CC2pK3eqdQerMEu-18" target="kdSf4CC2pK3eqdQerMEu-23">
          <mxGeometry relative="1" as="geometry" />
        </mxCell>
        <mxCell id="kdSf4CC2pK3eqdQerMEu-32" value="1" style="edgeLabel;html=1;align=center;verticalAlign=middle;resizable=0;points=[];" vertex="1" connectable="0" parent="kdSf4CC2pK3eqdQerMEu-31">
          <mxGeometry x="-0.0207" y="1" relative="1" as="geometry">
            <mxPoint x="-16" y="28" as="offset" />
          </mxGeometry>
        </mxCell>
        <mxCell id="kdSf4CC2pK3eqdQerMEu-33" value="0..*" style="edgeStyle=orthogonalEdgeStyle;rounded=0;orthogonalLoop=1;jettySize=auto;html=1;exitX=1;exitY=0.75;exitDx=0;exitDy=0;entryX=0.5;entryY=0;entryDx=0;entryDy=0;" edge="1" parent="kdSf4CC2pK3eqdQerMEu-17" source="kdSf4CC2pK3eqdQerMEu-18" target="kdSf4CC2pK3eqdQerMEu-24">
          <mxGeometry x="0.7241" y="15" relative="1" as="geometry">
            <mxPoint y="1" as="offset" />
          </mxGeometry>
        </mxCell>
        <mxCell id="kdSf4CC2pK3eqdQerMEu-18" value="«entity»&lt;div&gt;«root»&lt;br&gt;&lt;div&gt;&lt;div&gt;Medical Condition&lt;/div&gt;&lt;/div&gt;&lt;/div&gt;" style="rounded=0;whiteSpace=wrap;html=1;" vertex="1" parent="kdSf4CC2pK3eqdQerMEu-17">
          <mxGeometry x="95" y="110" width="110" height="50" as="geometry" />
        </mxCell>
        <mxCell id="kdSf4CC2pK3eqdQerMEu-22" value="«value object»&lt;div&gt;Designation&lt;/div&gt;" style="rounded=0;whiteSpace=wrap;html=1;" vertex="1" parent="kdSf4CC2pK3eqdQerMEu-17">
          <mxGeometry x="190" y="40" width="90" height="40" as="geometry" />
        </mxCell>
        <mxCell id="kdSf4CC2pK3eqdQerMEu-23" value="«value object»&lt;div&gt;Description&lt;/div&gt;" style="rounded=0;whiteSpace=wrap;html=1;" vertex="1" parent="kdSf4CC2pK3eqdQerMEu-17">
          <mxGeometry x="20" y="190" width="90" height="40" as="geometry" />
        </mxCell>
        <mxCell id="kdSf4CC2pK3eqdQerMEu-24" value="«value object»&lt;div&gt;Common Symptoms&lt;/div&gt;" style="rounded=0;whiteSpace=wrap;html=1;" vertex="1" parent="kdSf4CC2pK3eqdQerMEu-17">
          <mxGeometry x="190" y="190" width="90" height="40" as="geometry" />
        </mxCell>
        <mxCell id="kdSf4CC2pK3eqdQerMEu-26" value="«value object»&lt;div&gt;Code&lt;/div&gt;" style="rounded=0;whiteSpace=wrap;html=1;" vertex="1" parent="kdSf4CC2pK3eqdQerMEu-17">
          <mxGeometry x="20" y="40" width="90" height="40" as="geometry" />
        </mxCell>
        <mxCell id="kdSf4CC2pK3eqdQerMEu-34" style="edgeStyle=orthogonalEdgeStyle;rounded=0;orthogonalLoop=1;jettySize=auto;html=1;exitX=0.5;exitY=1;exitDx=0;exitDy=0;entryX=0.5;entryY=0;entryDx=0;entryDy=0;" edge="1" parent="WIyWlLk6GJQsqaUBKTNV-1" source="kdSf4CC2pK3eqdQerMEu-11" target="kdSf4CC2pK3eqdQerMEu-18">
          <mxGeometry relative="1" as="geometry" />
        </mxCell>
        <mxCell id="kdSf4CC2pK3eqdQerMEu-35" value="contains" style="edgeLabel;html=1;align=center;verticalAlign=middle;resizable=0;points=[];" vertex="1" connectable="0" parent="kdSf4CC2pK3eqdQerMEu-34">
          <mxGeometry x="-0.3304" y="-1" relative="1" as="geometry">
            <mxPoint as="offset" />
          </mxGeometry>
        </mxCell>
        <mxCell id="kdSf4CC2pK3eqdQerMEu-36" value="0..*" style="edgeLabel;html=1;align=center;verticalAlign=middle;resizable=0;points=[];" vertex="1" connectable="0" parent="kdSf4CC2pK3eqdQerMEu-34">
          <mxGeometry x="0.7565" y="-1" relative="1" as="geometry">
            <mxPoint x="11" y="8" as="offset" />
          </mxGeometry>
        </mxCell>
        <mxCell id="kdSf4CC2pK3eqdQerMEu-37" value="Medical Condition&lt;span style=&quot;background-color: initial; color: light-dark(rgb(0, 0, 0), rgb(255, 255, 255));&quot;&gt;&amp;nbsp;Aggregate&lt;/span&gt;" style="swimlane;whiteSpace=wrap;html=1;" vertex="1" parent="WIyWlLk6GJQsqaUBKTNV-1">
          <mxGeometry x="60" y="250" width="270" height="190" as="geometry">
            <mxRectangle x="234" y="200" width="150" height="30" as="alternateBounds" />
          </mxGeometry>
        </mxCell>
        <mxCell id="kdSf4CC2pK3eqdQerMEu-45" value="«entity»&lt;div&gt;«root»&lt;br&gt;&lt;div&gt;&lt;div&gt;Medical Condition&lt;/div&gt;&lt;/div&gt;&lt;/div&gt;" style="rounded=0;whiteSpace=wrap;html=1;" vertex="1" parent="kdSf4CC2pK3eqdQerMEu-37">
          <mxGeometry x="140" y="40" width="110" height="50" as="geometry" />
        </mxCell>
        <mxCell id="kdSf4CC2pK3eqdQerMEu-52" style="edgeStyle=orthogonalEdgeStyle;rounded=0;orthogonalLoop=1;jettySize=auto;html=1;exitX=0.5;exitY=0;exitDx=0;exitDy=0;entryX=0.5;entryY=1;entryDx=0;entryDy=0;" edge="1" parent="kdSf4CC2pK3eqdQerMEu-37" source="kdSf4CC2pK3eqdQerMEu-47" target="kdSf4CC2pK3eqdQerMEu-45">
          <mxGeometry relative="1" as="geometry">
            <Array as="points">
              <mxPoint x="65" y="120" />
              <mxPoint x="195" y="120" />
            </Array>
          </mxGeometry>
        </mxCell>
        <mxCell id="kdSf4CC2pK3eqdQerMEu-55" value="1" style="edgeLabel;html=1;align=center;verticalAlign=middle;resizable=0;points=[];" vertex="1" connectable="0" parent="kdSf4CC2pK3eqdQerMEu-52">
          <mxGeometry x="-0.0353" y="-1" relative="1" as="geometry">
            <mxPoint x="53" y="-11" as="offset" />
          </mxGeometry>
        </mxCell>
        <mxCell id="kdSf4CC2pK3eqdQerMEu-47" value="«value object»&lt;div&gt;Description&lt;/div&gt;" style="rounded=0;whiteSpace=wrap;html=1;" vertex="1" parent="kdSf4CC2pK3eqdQerMEu-37">
          <mxGeometry x="20" y="130" width="90" height="40" as="geometry" />
        </mxCell>
        <mxCell id="kdSf4CC2pK3eqdQerMEu-53" style="edgeStyle=orthogonalEdgeStyle;rounded=0;orthogonalLoop=1;jettySize=auto;html=1;exitX=0.5;exitY=0;exitDx=0;exitDy=0;entryX=0.75;entryY=1;entryDx=0;entryDy=0;" edge="1" parent="kdSf4CC2pK3eqdQerMEu-37" source="kdSf4CC2pK3eqdQerMEu-48" target="kdSf4CC2pK3eqdQerMEu-45">
          <mxGeometry relative="1" as="geometry">
            <Array as="points">
              <mxPoint x="205" y="110" />
              <mxPoint x="223" y="110" />
            </Array>
          </mxGeometry>
        </mxCell>
        <mxCell id="kdSf4CC2pK3eqdQerMEu-56" value="1" style="edgeLabel;html=1;align=center;verticalAlign=middle;resizable=0;points=[];" vertex="1" connectable="0" parent="kdSf4CC2pK3eqdQerMEu-53">
          <mxGeometry x="-0.0609" relative="1" as="geometry">
            <mxPoint x="18" y="-10" as="offset" />
          </mxGeometry>
        </mxCell>
        <mxCell id="kdSf4CC2pK3eqdQerMEu-48" value="«value object»&lt;div&gt;Designation&lt;/div&gt;" style="rounded=0;whiteSpace=wrap;html=1;" vertex="1" parent="kdSf4CC2pK3eqdQerMEu-37">
          <mxGeometry x="160" y="130" width="90" height="40" as="geometry" />
        </mxCell>
        <mxCell id="kdSf4CC2pK3eqdQerMEu-51" style="edgeStyle=orthogonalEdgeStyle;rounded=0;orthogonalLoop=1;jettySize=auto;html=1;exitX=0.5;exitY=1;exitDx=0;exitDy=0;entryX=0.25;entryY=1;entryDx=0;entryDy=0;" edge="1" parent="kdSf4CC2pK3eqdQerMEu-37" source="kdSf4CC2pK3eqdQerMEu-49" target="kdSf4CC2pK3eqdQerMEu-45">
          <mxGeometry relative="1" as="geometry">
            <Array as="points">
              <mxPoint x="65" y="100" />
              <mxPoint x="168" y="100" />
            </Array>
          </mxGeometry>
        </mxCell>
        <mxCell id="kdSf4CC2pK3eqdQerMEu-54" value="1" style="edgeLabel;html=1;align=center;verticalAlign=middle;resizable=0;points=[];" vertex="1" connectable="0" parent="kdSf4CC2pK3eqdQerMEu-51">
          <mxGeometry x="-0.3208" y="-1" relative="1" as="geometry">
            <mxPoint x="60" y="-1" as="offset" />
          </mxGeometry>
        </mxCell>
        <mxCell id="kdSf4CC2pK3eqdQerMEu-49" value="«value object»&lt;div&gt;Code&lt;/div&gt;" style="rounded=0;whiteSpace=wrap;html=1;" vertex="1" parent="kdSf4CC2pK3eqdQerMEu-37">
          <mxGeometry x="20" y="40" width="90" height="40" as="geometry" />
        </mxCell>
        <mxCell id="kdSf4CC2pK3eqdQerMEu-60" value="0..*" style="text;html=1;align=center;verticalAlign=middle;resizable=0;points=[];autosize=1;strokeColor=none;fillColor=none;" vertex="1" parent="kdSf4CC2pK3eqdQerMEu-37">
          <mxGeometry x="240" y="40" width="40" height="30" as="geometry" />
        </mxCell>
        <mxCell id="kdSf4CC2pK3eqdQerMEu-58" style="edgeStyle=orthogonalEdgeStyle;rounded=0;orthogonalLoop=1;jettySize=auto;html=1;exitX=0;exitY=0.5;exitDx=0;exitDy=0;entryX=1;entryY=0.5;entryDx=0;entryDy=0;" edge="1" parent="WIyWlLk6GJQsqaUBKTNV-1" source="kdSf4CC2pK3eqdQerMEu-11" target="kdSf4CC2pK3eqdQerMEu-45">
          <mxGeometry relative="1" as="geometry" />
        </mxCell>
        <mxCell id="kdSf4CC2pK3eqdQerMEu-59" value="contains" style="edgeLabel;html=1;align=center;verticalAlign=middle;resizable=0;points=[];" vertex="1" connectable="0" parent="kdSf4CC2pK3eqdQerMEu-58">
          <mxGeometry x="0.3391" y="-1" relative="1" as="geometry">
            <mxPoint x="12" y="26" as="offset" />
          </mxGeometry>
        </mxCell>
      </root>
    </mxGraphModel>
  </diagram>
</mxfile>
